<?xml version="1.0" encoding="UTF-8" standalone="no"?>
<?xml-stylesheet href="common/css/sf.css" type="text/css"?>
<!DOCTYPE svg PUBLIC "-//W3C//DTD SVG 1.1//EN"
 "http://www.w3.org/Graphics/SVG/1.1/DTD/svg11.dtd">
<!-- Generated by graphviz version 8.0.3 (0)
 -->
<!-- Pages: 1 -->
<svg width="504pt" height="1160pt"
 viewBox="0.00 21.60 504.00 1138.87" xmlns="http://www.w3.org/2000/svg" xmlns:xlink="http://www.w3.org/1999/xlink">
<g id="graph0" class="graph deps" transform="scale(0.984375 0.984375) rotate(0) translate(4 1152.94)">
<polygon fill="white" stroke="none" points="-4,4 -4,-1131 508,-1131 508,4 -4,4"/>
<!-- legend -->
<g id="node1" class="node">
<title>legend</title>
<g id="a_node1"><a xlink:title="Go to chapter" target="_top">
<polygon fill="WhiteSmoke" stroke="none" points="222.5,-1127 13.5,-1127 13.5,-1040 222.5,-1040 222.5,-1127"/>
<polygon fill="lightblue" stroke="none" points="17.5,-1090 17.5,-1123 100.5,-1123 100.5,-1090 17.5,-1090"/>
<polygon fill="none" stroke="#7f7f7f" points="17.5,-1090 17.5,-1123 100.5,-1123 100.5,-1090 17.5,-1090"/>
<text text-anchor="start" x="28.5" y="-1104" font-family="Times,serif" font-size="10.00"> Core chapters </text>
<polygon fill="lightyellow" stroke="none" points="110.5,-1090 110.5,-1123 218.5,-1123 218.5,-1090 110.5,-1090"/>
<polygon fill="none" stroke="#7f7f7f" points="110.5,-1090 110.5,-1123 218.5,-1123 218.5,-1090 110.5,-1090"/>
<text text-anchor="start" x="121.5" y="-1104" font-family="Times,serif" font-size="10.00">Contributed chapters</text>
<text text-anchor="start" x="22.5" y="-1074" font-family="Times,serif" font-size="10.00" fill="gray">⟶</text>
<text text-anchor="start" x="37.5" y="-1074" font-family="Times,serif" font-size="10.00"> &#160;&#160;&#160;&#160;Chapter dependencies</text>
<text text-anchor="start" x="22.5" y="-1053" font-family="Times,serif" font-size="10.00" fill="blue">⟶</text>
<text text-anchor="start" x="37.5" y="-1053" font-family="Times,serif" font-size="10.00"> &#160;&#160;&#160;&#160;Proofs are Programs course in Bochum</text>
</a>
</g>
</g>
<!-- Preface -->
<g id="node2" class="node">
<title>Preface</title>
<g id="a_node2"><a xlink:href="Preface.html" xlink:title="Go to chapter" target="_top">
<polygon fill="lightblue" stroke="black" points="316.5,-1101.5 253.5,-1101.5 253.5,-1065.5 316.5,-1065.5 316.5,-1101.5"/>
<text text-anchor="middle" x="285" y="-1080.7" font-family="Times,serif" font-size="11.00">Preface</text>
</a>
</g>
</g>
<!-- Basics -->
<g id="node4" class="node">
<title>Basics</title>
<g id="a_node4"><a xlink:href="Basics.html" xlink:title="Go to chapter" target="_top">
<polygon fill="lightblue" stroke="black" points="360.5,-1004 209.5,-1004 209.5,-960 360.5,-960 360.5,-1004"/>
<text text-anchor="start" x="269.5" y="-987.2" font-family="Times,serif" font-size="11.00">Basics</text>
<text text-anchor="start" x="227.5" y="-970.8" font-family="Times,serif" font-size="9.00">Functional Programming in Coq</text>
</a>
</g>
</g>
<!-- Preface&#45;&gt;Basics -->
<g id="edge19" class="edge">
<title>Preface&#45;&gt;Basics</title>
<path fill="none" stroke="blue" d="M285,-1065.17C285,-1051.42 285,-1031.81 285,-1015.2"/>
<polygon fill="blue" stroke="blue" points="288.5,-1015.28 285,-1005.28 281.5,-1015.28 288.5,-1015.28"/>
</g>
<!-- Postscript -->
<g id="node3" class="node">
<title>Postscript</title>
<g id="a_node3"><a xlink:href="Postscript.html" xlink:title="Go to chapter" target="_top">
<polygon fill="lightblue" stroke="black" points="406,-120 334,-120 334,-84 406,-84 406,-120"/>
<text text-anchor="middle" x="370" y="-99.2" font-family="Times,serif" font-size="11.00">Postscript</text>
</a>
</g>
</g>
<!-- Bib -->
<g id="node19" class="node">
<title>Bib</title>
<g id="a_node19"><a xlink:href="Bib.html" xlink:title="Go to chapter" target="_top">
<polygon fill="lightblue" stroke="black" points="411.5,-44 328.5,-44 328.5,0 411.5,0 411.5,-44"/>
<text text-anchor="start" x="362" y="-27.2" font-family="Times,serif" font-size="11.00">Bib</text>
<text text-anchor="start" x="346.5" y="-10.8" font-family="Times,serif" font-size="9.00">Bibliography</text>
</a>
</g>
</g>
<!-- Postscript&#45;&gt;Bib -->
<g id="edge15" class="edge">
<title>Postscript&#45;&gt;Bib</title>
<path fill="none" stroke="gray" d="M370,-83.69C370,-75.37 370,-65.11 370,-55.42"/>
<polygon fill="gray" stroke="gray" points="373.5,-55.44 370,-45.44 366.5,-55.44 373.5,-55.44"/>
</g>
<!-- Induction -->
<g id="node5" class="node">
<title>Induction</title>
<g id="a_node5"><a xlink:href="Induction.html" xlink:title="Go to chapter" target="_top">
<polygon fill="lightblue" stroke="black" points="337,-924 233,-924 233,-880 337,-880 337,-924"/>
<text text-anchor="start" x="264" y="-907.2" font-family="Times,serif" font-size="11.00">Induction</text>
<text text-anchor="start" x="251" y="-890.8" font-family="Times,serif" font-size="9.00">Proof by Induction</text>
</a>
</g>
</g>
<!-- Basics&#45;&gt;Induction -->
<g id="edge1" class="edge">
<title>Basics&#45;&gt;Induction</title>
<path fill="none" stroke="gray" d="M278.91,-959.69C278.3,-952.12 278.12,-943.43 278.34,-935.16"/>
<polygon fill="gray" stroke="gray" points="281.88,-935.46 278.91,-925.29 274.89,-935.09 281.88,-935.46"/>
</g>
<!-- Basics&#45;&gt;Induction -->
<g id="edge20" class="edge">
<title>Basics&#45;&gt;Induction</title>
<path fill="none" stroke="blue" d="M291.09,-959.69C291.7,-952.12 291.88,-943.43 291.66,-935.16"/>
<polygon fill="blue" stroke="blue" points="295.11,-935.09 291.09,-925.29 288.12,-935.46 295.11,-935.09"/>
</g>
<!-- Lists -->
<g id="node6" class="node">
<title>Lists</title>
<g id="a_node6"><a xlink:href="Lists.html" xlink:title="Go to chapter" target="_top">
<polygon fill="lightblue" stroke="black" points="357,-844 213,-844 213,-800 357,-800 357,-844"/>
<text text-anchor="start" x="274" y="-827.2" font-family="Times,serif" font-size="11.00">Lists</text>
<text text-anchor="start" x="231" y="-810.8" font-family="Times,serif" font-size="9.00">Working with Structured Data</text>
</a>
</g>
</g>
<!-- Induction&#45;&gt;Lists -->
<g id="edge2" class="edge">
<title>Induction&#45;&gt;Lists</title>
<path fill="none" stroke="gray" d="M278.91,-879.69C278.3,-872.12 278.12,-863.43 278.34,-855.16"/>
<polygon fill="gray" stroke="gray" points="281.88,-855.46 278.91,-845.29 274.89,-855.09 281.88,-855.46"/>
</g>
<!-- Induction&#45;&gt;Lists -->
<g id="edge21" class="edge">
<title>Induction&#45;&gt;Lists</title>
<path fill="none" stroke="blue" d="M291.09,-879.69C291.7,-872.12 291.88,-863.43 291.66,-855.16"/>
<polygon fill="blue" stroke="blue" points="295.11,-855.09 291.09,-845.29 288.12,-855.46 295.11,-855.09"/>
</g>
<!-- Poly -->
<g id="node7" class="node">
<title>Poly</title>
<g id="a_node7"><a xlink:href="Poly.html" xlink:title="Go to chapter" target="_top">
<polygon fill="lightblue" stroke="black" points="381.5,-764 188.5,-764 188.5,-720 381.5,-720 381.5,-764"/>
<text text-anchor="start" x="275" y="-747.2" font-family="Times,serif" font-size="11.00">Poly</text>
<text text-anchor="start" x="206.5" y="-730.8" font-family="Times,serif" font-size="9.00">Polymorphism and Higher&#45;Order Functions</text>
</a>
</g>
</g>
<!-- Lists&#45;&gt;Poly -->
<g id="edge3" class="edge">
<title>Lists&#45;&gt;Poly</title>
<path fill="none" stroke="gray" d="M278.91,-799.69C278.3,-792.12 278.12,-783.43 278.34,-775.16"/>
<polygon fill="gray" stroke="gray" points="281.88,-775.46 278.91,-765.29 274.89,-775.09 281.88,-775.46"/>
</g>
<!-- Lists&#45;&gt;Poly -->
<g id="edge22" class="edge">
<title>Lists&#45;&gt;Poly</title>
<path fill="none" stroke="blue" d="M291.09,-799.69C291.7,-792.12 291.88,-783.43 291.66,-775.16"/>
<polygon fill="blue" stroke="blue" points="295.11,-775.09 291.09,-765.29 288.12,-775.46 295.11,-775.09"/>
</g>
<!-- Tactics -->
<g id="node8" class="node">
<title>Tactics</title>
<g id="a_node8"><a xlink:href="Tactics.html" xlink:title="Go to chapter" target="_top">
<polygon fill="lightblue" stroke="black" points="337.5,-684 232.5,-684 232.5,-640 337.5,-640 337.5,-684"/>
<text text-anchor="start" x="269" y="-667.2" font-family="Times,serif" font-size="11.00">Tactics</text>
<text text-anchor="start" x="250.5" y="-650.8" font-family="Times,serif" font-size="9.00">More Basic Tactics</text>
</a>
</g>
</g>
<!-- Poly&#45;&gt;Tactics -->
<g id="edge4" class="edge">
<title>Poly&#45;&gt;Tactics</title>
<path fill="none" stroke="gray" d="M278.91,-719.69C278.3,-712.12 278.12,-703.43 278.34,-695.16"/>
<polygon fill="gray" stroke="gray" points="281.88,-695.46 278.91,-685.29 274.89,-695.09 281.88,-695.46"/>
</g>
<!-- Poly&#45;&gt;Tactics -->
<g id="edge23" class="edge">
<title>Poly&#45;&gt;Tactics</title>
<path fill="none" stroke="blue" d="M291.09,-719.69C291.7,-712.12 291.88,-703.43 291.66,-695.16"/>
<polygon fill="blue" stroke="blue" points="295.11,-695.09 291.09,-685.29 288.12,-695.46 295.11,-695.09"/>
</g>
<!-- Logic1 -->
<g id="node10" class="node">
<title>Logic1</title>
<g id="a_node10"><a xlink:href="Logic1.html" xlink:title="Go to chapter" target="_top">
<polygon fill="lightblue" stroke="black" points="341,-604 229,-604 229,-560 341,-560 341,-604"/>
<text text-anchor="start" x="269.5" y="-587.2" font-family="Times,serif" font-size="11.00">Logic1</text>
<text text-anchor="start" x="247" y="-570.8" font-family="Times,serif" font-size="9.00">Logic in Coq (part 1)</text>
</a>
</g>
</g>
<!-- Tactics&#45;&gt;Logic1 -->
<g id="edge5" class="edge">
<title>Tactics&#45;&gt;Logic1</title>
<path fill="none" stroke="gray" d="M278.91,-639.69C278.3,-632.12 278.12,-623.43 278.34,-615.16"/>
<polygon fill="gray" stroke="gray" points="281.88,-615.46 278.91,-605.29 274.89,-615.09 281.88,-615.46"/>
</g>
<!-- Tactics&#45;&gt;Logic1 -->
<g id="edge24" class="edge">
<title>Tactics&#45;&gt;Logic1</title>
<path fill="none" stroke="blue" d="M291.09,-639.69C291.7,-632.12 291.88,-623.43 291.66,-615.16"/>
<polygon fill="blue" stroke="blue" points="295.11,-615.09 291.09,-605.29 288.12,-615.46 295.11,-615.09"/>
</g>
<!-- IndProp -->
<g id="node9" class="node">
<title>IndProp</title>
<g id="a_node9"><a xlink:href="IndProp.html" xlink:title="Go to chapter" target="_top">
<polygon fill="lightblue" stroke="black" points="362,-444 208,-444 208,-400 362,-400 362,-444"/>
<text text-anchor="start" x="267.5" y="-427.2" font-family="Times,serif" font-size="11.00">IndProp</text>
<text text-anchor="start" x="226" y="-410.8" font-family="Times,serif" font-size="9.00">Inductively Defined Propositions</text>
</a>
</g>
</g>
<!-- Maps -->
<g id="node12" class="node">
<title>Maps</title>
<g id="a_node12"><a xlink:href="Maps.html" xlink:title="Go to chapter" target="_top">
<polygon fill="lightblue" stroke="black" points="183.5,-364 66.5,-364 66.5,-320 183.5,-320 183.5,-364"/>
<text text-anchor="start" x="112.5" y="-347.2" font-family="Times,serif" font-size="11.00">Maps</text>
<text text-anchor="start" x="84.5" y="-330.8" font-family="Times,serif" font-size="9.00">Total and Partial Maps</text>
</a>
</g>
</g>
<!-- IndProp&#45;&gt;Maps -->
<g id="edge8" class="edge">
<title>IndProp&#45;&gt;Maps</title>
<path fill="none" stroke="gray" d="M241.28,-399.69C221.96,-390.27 199.05,-379.1 178.7,-369.18"/>
<polygon fill="gray" stroke="gray" points="180.47,-365.66 169.95,-364.42 177.4,-371.95 180.47,-365.66"/>
</g>
<!-- ProofObjects -->
<g id="node13" class="node">
<title>ProofObjects</title>
<g id="a_node13"><a xlink:href="ProofObjects.html" xlink:title="Go to chapter" target="_top">
<polygon fill="lightblue" stroke="black" points="368,-364 202,-364 202,-320 368,-320 368,-364"/>
<text text-anchor="start" x="255.5" y="-347.2" font-family="Times,serif" font-size="11.00">ProofObjects</text>
<text text-anchor="start" x="220" y="-330.8" font-family="Times,serif" font-size="9.00">The Curry&#45;Howard Correspondence</text>
</a>
</g>
</g>
<!-- IndProp&#45;&gt;ProofObjects -->
<g id="edge10" class="edge">
<title>IndProp&#45;&gt;ProofObjects</title>
<path fill="none" stroke="gray" d="M278.91,-399.69C278.3,-392.12 278.12,-383.43 278.34,-375.16"/>
<polygon fill="gray" stroke="gray" points="281.88,-375.46 278.91,-365.29 274.89,-375.09 281.88,-375.46"/>
</g>
<!-- IndProp&#45;&gt;ProofObjects -->
<g id="edge27" class="edge">
<title>IndProp&#45;&gt;ProofObjects</title>
<path fill="none" stroke="blue" d="M291.09,-399.69C291.7,-392.12 291.88,-383.43 291.66,-375.16"/>
<polygon fill="blue" stroke="blue" points="295.11,-375.09 291.09,-365.29 288.12,-375.46 295.11,-375.09"/>
</g>
<!-- Rel -->
<g id="node18" class="node">
<title>Rel</title>
<g id="a_node18"><a xlink:href="Rel.html" xlink:title="Go to chapter" target="_top">
<polygon fill="lightblue" stroke="black" points="504,-364 386,-364 386,-320 504,-320 504,-364"/>
<text text-anchor="start" x="437" y="-347.2" font-family="Times,serif" font-size="11.00">Rel</text>
<text text-anchor="start" x="404" y="-330.8" font-family="Times,serif" font-size="9.00">Properties of Relations</text>
</a>
</g>
</g>
<!-- IndProp&#45;&gt;Rel -->
<g id="edge12" class="edge">
<title>IndProp&#45;&gt;Rel</title>
<path fill="none" stroke="gray" d="M328.72,-399.69C348.04,-390.27 370.95,-379.1 391.3,-369.18"/>
<polygon fill="gray" stroke="gray" points="392.6,-371.95 400.05,-364.42 389.53,-365.66 392.6,-371.95"/>
</g>
<!-- Logic -->
<g id="node11" class="node">
<title>Logic</title>
<g id="a_node11"><a xlink:href="Logic.html" xlink:title="Go to chapter" target="_top">
<polygon fill="lightblue" stroke="black" points="341,-524 229,-524 229,-480 341,-480 341,-524"/>
<text text-anchor="start" x="272" y="-507.2" font-family="Times,serif" font-size="11.00">Logic</text>
<text text-anchor="start" x="247" y="-490.8" font-family="Times,serif" font-size="9.00">Logic in Coq (part 2)</text>
</a>
</g>
</g>
<!-- Logic1&#45;&gt;Logic -->
<g id="edge6" class="edge">
<title>Logic1&#45;&gt;Logic</title>
<path fill="none" stroke="gray" d="M278.91,-559.69C278.3,-552.12 278.12,-543.43 278.34,-535.16"/>
<polygon fill="gray" stroke="gray" points="281.88,-535.46 278.91,-525.29 274.89,-535.09 281.88,-535.46"/>
</g>
<!-- Logic1&#45;&gt;Logic -->
<g id="edge25" class="edge">
<title>Logic1&#45;&gt;Logic</title>
<path fill="none" stroke="blue" d="M291.09,-559.69C291.7,-552.12 291.88,-543.43 291.66,-535.16"/>
<polygon fill="blue" stroke="blue" points="295.11,-535.09 291.09,-525.29 288.12,-535.46 295.11,-535.09"/>
</g>
<!-- Logic&#45;&gt;IndProp -->
<g id="edge7" class="edge">
<title>Logic&#45;&gt;IndProp</title>
<path fill="none" stroke="gray" d="M278.91,-479.69C278.3,-472.12 278.12,-463.43 278.34,-455.16"/>
<polygon fill="gray" stroke="gray" points="281.88,-455.46 278.91,-445.29 274.89,-455.09 281.88,-455.46"/>
</g>
<!-- Logic&#45;&gt;IndProp -->
<g id="edge26" class="edge">
<title>Logic&#45;&gt;IndProp</title>
<path fill="none" stroke="blue" d="M291.09,-479.69C291.7,-472.12 291.88,-463.43 291.66,-455.16"/>
<polygon fill="blue" stroke="blue" points="295.11,-455.09 291.09,-445.29 288.12,-455.46 295.11,-455.09"/>
</g>
<!-- Imp -->
<g id="node15" class="node">
<title>Imp</title>
<g id="a_node15"><a xlink:href="Imp.html" xlink:title="Go to chapter" target="_top">
<polygon fill="lightblue" stroke="black" points="205,-284 67,-284 67,-240 205,-240 205,-284"/>
<text text-anchor="start" x="127" y="-267.2" font-family="Times,serif" font-size="11.00">Imp</text>
<text text-anchor="start" x="85" y="-250.8" font-family="Times,serif" font-size="9.00">Simple Imperative Programs</text>
</a>
</g>
</g>
<!-- Maps&#45;&gt;Imp -->
<g id="edge9" class="edge">
<title>Maps&#45;&gt;Imp</title>
<path fill="none" stroke="gray" d="M121.91,-319.69C122.38,-312.03 123.44,-303.23 124.86,-294.87"/>
<polygon fill="gray" stroke="gray" points="128.44,-295.77 126.91,-285.29 121.57,-294.44 128.44,-295.77"/>
</g>
<!-- Maps&#45;&gt;Imp -->
<g id="edge29" class="edge">
<title>Maps&#45;&gt;Imp</title>
<path fill="none" stroke="blue" d="M134.1,-319.69C135.77,-312.12 137.18,-303.43 138.12,-295.16"/>
<polygon fill="blue" stroke="blue" points="141.69,-295.56 139.09,-285.29 134.72,-294.94 141.69,-295.56"/>
</g>
<!-- ProofObjects&#45;&gt;Maps -->
<g id="edge28" class="edge">
<title>ProofObjects&#45;&gt;Maps</title>
<path fill="none" stroke="blue" d="M201.55,-342C199.23,-342 196.91,-342 194.6,-342"/>
<polygon fill="blue" stroke="blue" points="194.75,-338.5 184.75,-342 194.75,-345.5 194.75,-338.5"/>
</g>
<!-- IndPrinciples -->
<g id="node14" class="node">
<title>IndPrinciples</title>
<g id="a_node14"><a xlink:href="IndPrinciples.html" xlink:title="Go to chapter" target="_top">
<polygon fill="lightblue" stroke="black" points="336.5,-284 233.5,-284 233.5,-240 336.5,-240 336.5,-284"/>
<text text-anchor="start" x="255.5" y="-267.2" font-family="Times,serif" font-size="11.00">IndPrinciples</text>
<text text-anchor="start" x="251.5" y="-250.8" font-family="Times,serif" font-size="9.00">More on Induction</text>
</a>
</g>
</g>
<!-- ProofObjects&#45;&gt;IndPrinciples -->
<g id="edge11" class="edge">
<title>ProofObjects&#45;&gt;IndPrinciples</title>
<path fill="none" stroke="gray" d="M285,-319.69C285,-312.12 285,-303.43 285,-295.16"/>
<polygon fill="gray" stroke="gray" points="288.5,-295.29 285,-285.29 281.5,-295.29 288.5,-295.29"/>
</g>
<!-- ImpParser -->
<g id="node16" class="node">
<title>ImpParser</title>
<g id="a_node16"><a xlink:href="ImpParser.html" xlink:title="Go to chapter" target="_top">
<polygon fill="lightblue" stroke="black" points="132,-204 0,-204 0,-160 132,-160 132,-204"/>
<text text-anchor="start" x="43" y="-187.2" font-family="Times,serif" font-size="11.00">ImpParser</text>
<text text-anchor="start" x="18" y="-170.8" font-family="Times,serif" font-size="9.00">Lexing and Parsing in Coq</text>
</a>
</g>
</g>
<!-- Imp&#45;&gt;ImpParser -->
<g id="edge16" class="edge">
<title>Imp&#45;&gt;ImpParser</title>
<path fill="none" stroke="gray" d="M116.87,-239.69C109.31,-231.26 100.49,-221.44 92.35,-212.36"/>
<polygon fill="gray" stroke="gray" points="95.39,-210.39 86.1,-205.29 90.18,-215.07 95.39,-210.39"/>
</g>
<!-- ImpCEvalFun -->
<g id="node17" class="node">
<title>ImpCEvalFun</title>
<g id="a_node17"><a xlink:href="ImpCEvalFun.html" xlink:title="Go to chapter" target="_top">
<polygon fill="lightblue" stroke="black" points="301.5,-204 150.5,-204 150.5,-160 301.5,-160 301.5,-204"/>
<text text-anchor="start" x="195" y="-187.2" font-family="Times,serif" font-size="11.00">ImpCEvalFun</text>
<text text-anchor="start" x="168.5" y="-170.8" font-family="Times,serif" font-size="9.00">An Evaluation Function for Imp</text>
</a>
</g>
</g>
<!-- Imp&#45;&gt;ImpCEvalFun -->
<g id="edge18" class="edge">
<title>Imp&#45;&gt;ImpCEvalFun</title>
<path fill="none" stroke="gray" d="M160.59,-239.69C170.71,-230.92 182.58,-220.63 193.41,-211.25"/>
<polygon fill="gray" stroke="gray" points="195.17,-213.48 200.44,-204.29 190.59,-208.19 195.17,-213.48"/>
</g>
<!-- Auto -->
<g id="node20" class="node">
<title>Auto</title>
<g id="a_node20"><a xlink:href="Auto.html" xlink:title="Go to chapter" target="_top">
<polygon fill="lightblue" stroke="black" points="420,-204 320,-204 320,-160 420,-160 420,-204"/>
<text text-anchor="start" x="359" y="-187.2" font-family="Times,serif" font-size="11.00">Auto</text>
<text text-anchor="start" x="338" y="-170.8" font-family="Times,serif" font-size="9.00">More Automation</text>
</a>
</g>
</g>
<!-- Imp&#45;&gt;Auto -->
<g id="edge13" class="edge">
<title>Imp&#45;&gt;Auto</title>
<path fill="none" stroke="gray" d="M195.31,-239.5C227.02,-229 266.61,-216.06 302,-204 304.39,-203.19 306.83,-202.35 309.3,-201.5"/>
<polygon fill="gray" stroke="gray" points="310.25,-204.52 318.56,-197.94 307.96,-197.91 310.25,-204.52"/>
</g>
<!-- Imp&#45;&gt;Auto -->
<g id="edge30" class="edge">
<title>Imp&#45;&gt;Auto</title>
<path fill="none" stroke="blue" d="M205.25,-241.49C236.69,-231.67 274.49,-219.39 309.33,-207.62"/>
<polygon fill="blue" stroke="blue" points="310.21,-210.68 318.56,-204.15 307.96,-204.05 310.21,-210.68"/>
</g>
<!-- Extraction -->
<g id="node21" class="node">
<title>Extraction</title>
<g id="a_node21"><a xlink:href="Extraction.html" xlink:title="Go to chapter" target="_top">
<polygon fill="lightblue" stroke="black" points="128.5,-124 3.5,-124 3.5,-80 128.5,-80 128.5,-124"/>
<text text-anchor="start" x="43" y="-107.2" font-family="Times,serif" font-size="11.00">Extraction</text>
<text text-anchor="start" x="21.5" y="-90.8" font-family="Times,serif" font-size="9.00">Extracting ML from Coq</text>
</a>
</g>
</g>
<!-- ImpParser&#45;&gt;Extraction -->
<g id="edge17" class="edge">
<title>ImpParser&#45;&gt;Extraction</title>
<path fill="none" stroke="gray" d="M66,-159.69C66,-152.12 66,-143.43 66,-135.16"/>
<polygon fill="gray" stroke="gray" points="69.5,-135.29 66,-125.29 62.5,-135.29 69.5,-135.29"/>
</g>
<!-- Auto&#45;&gt;Postscript -->
<g id="edge14" class="edge">
<title>Auto&#45;&gt;Postscript</title>
<path fill="none" stroke="gray" d="M363.91,-159.69C363.21,-150.9 363.07,-140.59 363.49,-131.2"/>
<polygon fill="gray" stroke="gray" points="367.04,-131.57 364.28,-121.35 360.06,-131.07 367.04,-131.57"/>
</g>
<!-- Auto&#45;&gt;Postscript -->
<g id="edge31" class="edge">
<title>Auto&#45;&gt;Postscript</title>
<path fill="none" stroke="blue" d="M376.09,-159.69C376.79,-150.9 376.93,-140.59 376.51,-131.2"/>
<polygon fill="blue" stroke="blue" points="379.94,-131.07 375.72,-121.35 372.96,-131.57 379.94,-131.07"/>
</g>
</g>
</svg>
