<?xml version="1.0" encoding="UTF-8" standalone="no"?>
<?xml-stylesheet href="common/css/sf.css" type="text/css"?>
<!DOCTYPE svg PUBLIC "-//W3C//DTD SVG 1.1//EN"
 "http://www.w3.org/Graphics/SVG/1.1/DTD/svg11.dtd">
<!-- Generated by graphviz version 8.0.5 (0)
 -->
<!-- Pages: 1 -->
<svg width="504pt" height="1257pt"
 viewBox="0.00 21.60 504.00 1235.51" xmlns="http://www.w3.org/2000/svg" xmlns:xlink="http://www.w3.org/1999/xlink">
<g id="graph0" class="graph deps" transform="scale(0.984519 0.984519) rotate(0) translate(4 1250.94)">
<polygon fill="white" stroke="none" points="-4,4 -4,-1229 507.92,-1229 507.92,4 -4,4"/>
<!-- legend -->
<g id="node1" class="node">
<title>legend</title>
<g id="a_node1"><a xlink:title="Go to chapter" target="_top">
<polygon fill="WhiteSmoke" stroke="none" points="221.12,-1225 14.93,-1225 14.93,-1136.8 221.12,-1136.8 221.12,-1225"/>
<polygon fill="lightblue" stroke="none" points="18.53,-1188.4 18.53,-1221.4 100.53,-1221.4 100.53,-1188.4 18.53,-1188.4"/>
<polygon fill="none" stroke="#7f7f7f" points="18.53,-1188.4 18.53,-1221.4 100.53,-1221.4 100.53,-1188.4 18.53,-1188.4"/>
<text text-anchor="start" x="29.53" y="-1200.9" font-family="Times,serif" font-size="10.00"> Core chapters </text>
<polygon fill="lightyellow" stroke="none" points="110.53,-1188.4 110.53,-1221.4 217.53,-1221.4 217.53,-1188.4 110.53,-1188.4"/>
<polygon fill="none" stroke="#7f7f7f" points="110.53,-1188.4 110.53,-1221.4 217.53,-1221.4 217.53,-1188.4 110.53,-1188.4"/>
<text text-anchor="start" x="121.28" y="-1200.9" font-family="Times,serif" font-size="10.00">Contributed chapters</text>
<text text-anchor="start" x="23.53" y="-1170.9" font-family="Times,serif" font-size="10.00" fill="gray">⟶</text>
<text text-anchor="start" x="37.78" y="-1170.9" font-family="Times,serif" font-size="10.00"> &#160;&#160;&#160;&#160;Chapter dependencies</text>
<text text-anchor="start" x="23.53" y="-1148.9" font-family="Times,serif" font-size="10.00" fill="blue">⟶</text>
<text text-anchor="start" x="37.78" y="-1148.9" font-family="Times,serif" font-size="10.00"> &#160;&#160;&#160;&#160;Proofs are Programs course in Bochum</text>
</a>
</g>
</g>
<!-- Preface -->
<g id="node2" class="node">
<title>Preface</title>
<g id="a_node2"><a xlink:href="Preface.html" xlink:title="Go to chapter" target="_top">
<polygon fill="lightblue" stroke="black" points="316.67,-1198.9 253.37,-1198.9 253.37,-1162.9 316.67,-1162.9 316.67,-1198.9"/>
<text text-anchor="middle" x="285.02" y="-1177.2" font-family="Times,serif" font-size="11.00">Preface</text>
</a>
</g>
</g>
<!-- Basics -->
<g id="node4" class="node">
<title>Basics</title>
<g id="a_node4"><a xlink:href="Basics.html" xlink:title="Go to chapter" target="_top">
<polygon fill="lightblue" stroke="black" points="360.8,-1100.8 209.25,-1100.8 209.25,-1055.6 360.8,-1055.6 360.8,-1100.8"/>
<text text-anchor="start" x="270.02" y="-1082.75" font-family="Times,serif" font-size="11.00">Basics</text>
<text text-anchor="start" x="227.65" y="-1065.15" font-family="Times,serif" font-size="9.00">Functional Programming in Coq</text>
</a>
</g>
</g>
<!-- Preface&#45;&gt;Basics -->
<g id="edge20" class="edge">
<title>Preface&#45;&gt;Basics</title>
<path fill="none" stroke="blue" d="M285.02,-1162.82C285.02,-1148.82 285.02,-1128.63 285.02,-1111.59"/>
<polygon fill="blue" stroke="blue" points="288.53,-1111.94 285.02,-1101.94 281.53,-1111.94 288.53,-1111.94"/>
</g>
<!-- Postscript -->
<g id="node3" class="node">
<title>Postscript</title>
<g id="a_node3"><a xlink:href="Postscript.html" xlink:title="Go to chapter" target="_top">
<polygon fill="lightblue" stroke="black" points="404.17,-121.8 331.88,-121.8 331.88,-85.8 404.17,-85.8 404.17,-121.8"/>
<text text-anchor="middle" x="368.02" y="-100.1" font-family="Times,serif" font-size="11.00">Postscript</text>
</a>
</g>
</g>
<!-- Bib -->
<g id="node20" class="node">
<title>Bib</title>
<g id="a_node20"><a xlink:href="Bib.html" xlink:title="Go to chapter" target="_top">
<polygon fill="lightblue" stroke="black" points="409.67,-45.2 326.38,-45.2 326.38,0 409.67,0 409.67,-45.2"/>
<text text-anchor="start" x="360.15" y="-27.15" font-family="Times,serif" font-size="11.00">Bib</text>
<text text-anchor="start" x="344.77" y="-9.55" font-family="Times,serif" font-size="9.00">Bibliography</text>
</a>
</g>
</g>
<!-- Postscript&#45;&gt;Bib -->
<g id="edge16" class="edge">
<title>Postscript&#45;&gt;Bib</title>
<path fill="none" stroke="gray" d="M368.02,-85.61C368.02,-77.09 368.02,-66.49 368.02,-56.48"/>
<polygon fill="gray" stroke="gray" points="371.53,-56.58 368.02,-46.58 364.53,-56.58 371.53,-56.58"/>
</g>
<!-- Induction -->
<g id="node5" class="node">
<title>Induction</title>
<g id="a_node5"><a xlink:href="Induction.html" xlink:title="Go to chapter" target="_top">
<polygon fill="lightblue" stroke="black" points="337.17,-1019.6 232.87,-1019.6 232.87,-974.4 337.17,-974.4 337.17,-1019.6"/>
<text text-anchor="start" x="264.4" y="-1001.55" font-family="Times,serif" font-size="11.00">Induction</text>
<text text-anchor="start" x="251.27" y="-983.95" font-family="Times,serif" font-size="9.00">Proof by Induction</text>
</a>
</g>
</g>
<!-- Basics&#45;&gt;Induction -->
<g id="edge1" class="edge">
<title>Basics&#45;&gt;Induction</title>
<path fill="none" stroke="gray" d="M278.9,-1055.14C278.33,-1047.59 278.15,-1038.97 278.37,-1030.75"/>
<polygon fill="gray" stroke="gray" points="281.9,-1031.11 278.91,-1020.94 274.91,-1030.75 281.9,-1031.11"/>
</g>
<!-- Basics&#45;&gt;Induction -->
<g id="edge21" class="edge">
<title>Basics&#45;&gt;Induction</title>
<path fill="none" stroke="blue" d="M291.15,-1055.14C291.72,-1047.59 291.9,-1038.97 291.68,-1030.75"/>
<polygon fill="blue" stroke="blue" points="295.14,-1030.75 291.14,-1020.94 288.15,-1031.11 295.14,-1030.75"/>
</g>
<!-- Lists -->
<g id="node6" class="node">
<title>Lists</title>
<g id="a_node6"><a xlink:href="Lists.html" xlink:title="Go to chapter" target="_top">
<polygon fill="lightblue" stroke="black" points="357.05,-938.4 213,-938.4 213,-893.2 357.05,-893.2 357.05,-938.4"/>
<text text-anchor="start" x="274.15" y="-920.35" font-family="Times,serif" font-size="11.00">Lists</text>
<text text-anchor="start" x="231.4" y="-902.75" font-family="Times,serif" font-size="9.00">Working with Structured Data</text>
</a>
</g>
</g>
<!-- Induction&#45;&gt;Lists -->
<g id="edge2" class="edge">
<title>Induction&#45;&gt;Lists</title>
<path fill="none" stroke="gray" d="M278.9,-973.94C278.33,-966.39 278.15,-957.77 278.37,-949.55"/>
<polygon fill="gray" stroke="gray" points="281.9,-949.91 278.91,-939.74 274.91,-949.55 281.9,-949.91"/>
</g>
<!-- Induction&#45;&gt;Lists -->
<g id="edge22" class="edge">
<title>Induction&#45;&gt;Lists</title>
<path fill="none" stroke="blue" d="M291.15,-973.94C291.72,-966.39 291.9,-957.77 291.68,-949.55"/>
<polygon fill="blue" stroke="blue" points="295.14,-949.55 291.14,-939.74 288.15,-949.91 295.14,-949.55"/>
</g>
<!-- Poly -->
<g id="node7" class="node">
<title>Poly</title>
<g id="a_node7"><a xlink:href="Poly.html" xlink:title="Go to chapter" target="_top">
<polygon fill="lightblue" stroke="black" points="381.42,-857.2 188.62,-857.2 188.62,-812 381.42,-812 381.42,-857.2"/>
<text text-anchor="start" x="275.27" y="-839.15" font-family="Times,serif" font-size="11.00">Poly</text>
<text text-anchor="start" x="207.02" y="-821.55" font-family="Times,serif" font-size="9.00">Polymorphism and Higher&#45;Order Functions</text>
</a>
</g>
</g>
<!-- Lists&#45;&gt;Poly -->
<g id="edge3" class="edge">
<title>Lists&#45;&gt;Poly</title>
<path fill="none" stroke="gray" d="M278.9,-892.74C278.33,-885.19 278.15,-876.57 278.37,-868.35"/>
<polygon fill="gray" stroke="gray" points="281.9,-868.71 278.91,-858.54 274.91,-868.35 281.9,-868.71"/>
</g>
<!-- Lists&#45;&gt;Poly -->
<g id="edge23" class="edge">
<title>Lists&#45;&gt;Poly</title>
<path fill="none" stroke="blue" d="M291.15,-892.74C291.72,-885.19 291.9,-876.57 291.68,-868.35"/>
<polygon fill="blue" stroke="blue" points="295.14,-868.35 291.14,-858.54 288.15,-868.71 295.14,-868.35"/>
</g>
<!-- Tactics -->
<g id="node8" class="node">
<title>Tactics</title>
<g id="a_node8"><a xlink:href="Tactics.html" xlink:title="Go to chapter" target="_top">
<polygon fill="lightblue" stroke="black" points="337.55,-776 232.5,-776 232.5,-730.8 337.55,-730.8 337.55,-776"/>
<text text-anchor="start" x="269.27" y="-757.95" font-family="Times,serif" font-size="11.00">Tactics</text>
<text text-anchor="start" x="250.9" y="-740.35" font-family="Times,serif" font-size="9.00">More Basic Tactics</text>
</a>
</g>
</g>
<!-- Poly&#45;&gt;Tactics -->
<g id="edge4" class="edge">
<title>Poly&#45;&gt;Tactics</title>
<path fill="none" stroke="gray" d="M278.9,-811.54C278.33,-803.99 278.15,-795.37 278.37,-787.15"/>
<polygon fill="gray" stroke="gray" points="281.9,-787.51 278.91,-777.34 274.91,-787.15 281.9,-787.51"/>
</g>
<!-- Poly&#45;&gt;Tactics -->
<g id="edge24" class="edge">
<title>Poly&#45;&gt;Tactics</title>
<path fill="none" stroke="blue" d="M291.15,-811.54C291.72,-803.99 291.9,-795.37 291.68,-787.15"/>
<polygon fill="blue" stroke="blue" points="295.14,-787.15 291.14,-777.34 288.15,-787.51 295.14,-787.15"/>
</g>
<!-- Logic1 -->
<g id="node11" class="node">
<title>Logic1</title>
<g id="a_node11"><a xlink:href="Logic1.html" xlink:title="Go to chapter" target="_top">
<polygon fill="lightblue" stroke="black" points="339.05,-694.8 231,-694.8 231,-649.6 339.05,-649.6 339.05,-694.8"/>
<text text-anchor="start" x="269.65" y="-676.75" font-family="Times,serif" font-size="11.00">Logic1</text>
<text text-anchor="start" x="249.4" y="-659.15" font-family="Times,serif" font-size="9.00">Logic in Coq: part 1</text>
</a>
</g>
</g>
<!-- Tactics&#45;&gt;Logic1 -->
<g id="edge5" class="edge">
<title>Tactics&#45;&gt;Logic1</title>
<path fill="none" stroke="gray" d="M278.9,-730.34C278.33,-722.79 278.15,-714.17 278.37,-705.95"/>
<polygon fill="gray" stroke="gray" points="281.9,-706.31 278.91,-696.14 274.91,-705.95 281.9,-706.31"/>
</g>
<!-- Tactics&#45;&gt;Logic1 -->
<g id="edge25" class="edge">
<title>Tactics&#45;&gt;Logic1</title>
<path fill="none" stroke="blue" d="M291.15,-730.34C291.72,-722.79 291.9,-714.17 291.68,-705.95"/>
<polygon fill="blue" stroke="blue" points="295.14,-705.95 291.14,-696.14 288.15,-706.31 295.14,-705.95"/>
</g>
<!-- IndProp1 -->
<g id="node9" class="node">
<title>IndProp1</title>
<g id="a_node9"><a xlink:href="IndProp1.html" xlink:title="Go to chapter" target="_top">
<polygon fill="lightblue" stroke="black" points="374.67,-532.4 195.37,-532.4 195.37,-487.2 374.67,-487.2 374.67,-532.4"/>
<text text-anchor="start" x="265.15" y="-514.35" font-family="Times,serif" font-size="11.00">IndProp1</text>
<text text-anchor="start" x="213.77" y="-496.75" font-family="Times,serif" font-size="9.00">Inductively Defined Propositions: part 1</text>
</a>
</g>
</g>
<!-- IndProp -->
<g id="node10" class="node">
<title>IndProp</title>
<g id="a_node10"><a xlink:href="IndProp.html" xlink:title="Go to chapter" target="_top">
<polygon fill="lightblue" stroke="black" points="374.67,-451.2 195.37,-451.2 195.37,-406 374.67,-406 374.67,-451.2"/>
<text text-anchor="start" x="267.77" y="-433.15" font-family="Times,serif" font-size="11.00">IndProp</text>
<text text-anchor="start" x="213.77" y="-415.55" font-family="Times,serif" font-size="9.00">Inductively Defined Propositions: part 2</text>
</a>
</g>
</g>
<!-- IndProp1&#45;&gt;IndProp -->
<g id="edge8" class="edge">
<title>IndProp1&#45;&gt;IndProp</title>
<path fill="none" stroke="gray" d="M278.9,-486.74C278.33,-479.19 278.15,-470.57 278.37,-462.35"/>
<polygon fill="gray" stroke="gray" points="281.9,-462.71 278.91,-452.54 274.91,-462.35 281.9,-462.71"/>
</g>
<!-- IndProp1&#45;&gt;IndProp -->
<g id="edge28" class="edge">
<title>IndProp1&#45;&gt;IndProp</title>
<path fill="none" stroke="blue" d="M291.15,-486.74C291.72,-479.19 291.9,-470.57 291.68,-462.35"/>
<polygon fill="blue" stroke="blue" points="295.14,-462.35 291.14,-452.54 288.15,-462.71 295.14,-462.35"/>
</g>
<!-- Maps -->
<g id="node13" class="node">
<title>Maps</title>
<g id="a_node13"><a xlink:href="Maps.html" xlink:title="Go to chapter" target="_top">
<polygon fill="lightblue" stroke="black" points="184.55,-370 67.5,-370 67.5,-324.8 184.55,-324.8 184.55,-370"/>
<text text-anchor="start" x="113.65" y="-351.95" font-family="Times,serif" font-size="11.00">Maps</text>
<text text-anchor="start" x="85.9" y="-334.35" font-family="Times,serif" font-size="9.00">Total and Partial Maps</text>
</a>
</g>
</g>
<!-- IndProp&#45;&gt;Maps -->
<g id="edge9" class="edge">
<title>IndProp&#45;&gt;Maps</title>
<path fill="none" stroke="gray" d="M240.73,-405.54C221.95,-396.18 199.87,-385.18 180.13,-375.35"/>
<polygon fill="gray" stroke="gray" points="181.86,-371.81 171.35,-370.48 178.74,-378.07 181.86,-371.81"/>
</g>
<!-- ProofObjects -->
<g id="node14" class="node">
<title>ProofObjects</title>
<g id="a_node14"><a xlink:href="ProofObjects.html" xlink:title="Go to chapter" target="_top">
<polygon fill="lightblue" stroke="black" points="367.92,-370 202.12,-370 202.12,-324.8 367.92,-324.8 367.92,-370"/>
<text text-anchor="start" x="255.77" y="-351.95" font-family="Times,serif" font-size="11.00">ProofObjects</text>
<text text-anchor="start" x="220.52" y="-334.35" font-family="Times,serif" font-size="9.00">The Curry&#45;Howard Correspondence</text>
</a>
</g>
</g>
<!-- IndProp&#45;&gt;ProofObjects -->
<g id="edge11" class="edge">
<title>IndProp&#45;&gt;ProofObjects</title>
<path fill="none" stroke="gray" d="M278.9,-405.54C278.33,-397.99 278.15,-389.37 278.37,-381.15"/>
<polygon fill="gray" stroke="gray" points="281.9,-381.51 278.91,-371.34 274.91,-381.15 281.9,-381.51"/>
</g>
<!-- IndProp&#45;&gt;ProofObjects -->
<g id="edge29" class="edge">
<title>IndProp&#45;&gt;ProofObjects</title>
<path fill="none" stroke="blue" d="M291.15,-405.54C291.72,-397.99 291.9,-389.37 291.68,-381.15"/>
<polygon fill="blue" stroke="blue" points="295.14,-381.15 291.14,-371.34 288.15,-381.51 295.14,-381.15"/>
</g>
<!-- Rel -->
<g id="node19" class="node">
<title>Rel</title>
<g id="a_node19"><a xlink:href="Rel.html" xlink:title="Go to chapter" target="_top">
<polygon fill="lightblue" stroke="black" points="503.92,-370 386.12,-370 386.12,-324.8 503.92,-324.8 503.92,-370"/>
<text text-anchor="start" x="437.15" y="-351.95" font-family="Times,serif" font-size="11.00">Rel</text>
<text text-anchor="start" x="404.52" y="-334.35" font-family="Times,serif" font-size="9.00">Properties of Relations</text>
</a>
</g>
</g>
<!-- IndProp&#45;&gt;Rel -->
<g id="edge13" class="edge">
<title>IndProp&#45;&gt;Rel</title>
<path fill="none" stroke="gray" d="M329.59,-405.54C348.5,-396.18 370.71,-385.18 390.58,-375.35"/>
<polygon fill="gray" stroke="gray" points="392.01,-378.05 399.42,-370.48 388.9,-371.78 392.01,-378.05"/>
</g>
<!-- Logic -->
<g id="node12" class="node">
<title>Logic</title>
<g id="a_node12"><a xlink:href="Logic.html" xlink:title="Go to chapter" target="_top">
<polygon fill="lightblue" stroke="black" points="339.05,-613.6 231,-613.6 231,-568.4 339.05,-568.4 339.05,-613.6"/>
<text text-anchor="start" x="272.27" y="-595.55" font-family="Times,serif" font-size="11.00">Logic</text>
<text text-anchor="start" x="249.4" y="-577.95" font-family="Times,serif" font-size="9.00">Logic in Coq: part 2</text>
</a>
</g>
</g>
<!-- Logic1&#45;&gt;Logic -->
<g id="edge6" class="edge">
<title>Logic1&#45;&gt;Logic</title>
<path fill="none" stroke="gray" d="M278.9,-649.14C278.33,-641.59 278.15,-632.97 278.37,-624.75"/>
<polygon fill="gray" stroke="gray" points="281.9,-625.11 278.91,-614.94 274.91,-624.75 281.9,-625.11"/>
</g>
<!-- Logic1&#45;&gt;Logic -->
<g id="edge26" class="edge">
<title>Logic1&#45;&gt;Logic</title>
<path fill="none" stroke="blue" d="M291.15,-649.14C291.72,-641.59 291.9,-632.97 291.68,-624.75"/>
<polygon fill="blue" stroke="blue" points="295.14,-624.75 291.14,-614.94 288.15,-625.11 295.14,-624.75"/>
</g>
<!-- Logic&#45;&gt;IndProp1 -->
<g id="edge7" class="edge">
<title>Logic&#45;&gt;IndProp1</title>
<path fill="none" stroke="gray" d="M278.9,-567.94C278.33,-560.39 278.15,-551.77 278.37,-543.55"/>
<polygon fill="gray" stroke="gray" points="281.9,-543.91 278.91,-533.74 274.91,-543.55 281.9,-543.91"/>
</g>
<!-- Logic&#45;&gt;IndProp1 -->
<g id="edge27" class="edge">
<title>Logic&#45;&gt;IndProp1</title>
<path fill="none" stroke="blue" d="M291.15,-567.94C291.72,-560.39 291.9,-551.77 291.68,-543.55"/>
<polygon fill="blue" stroke="blue" points="295.14,-543.55 291.14,-533.74 288.15,-543.91 295.14,-543.55"/>
</g>
<!-- Imp -->
<g id="node16" class="node">
<title>Imp</title>
<g id="a_node16"><a xlink:href="Imp.html" xlink:title="Go to chapter" target="_top">
<polygon fill="lightblue" stroke="black" points="205.05,-288.8 67,-288.8 67,-243.6 205.05,-243.6 205.05,-288.8"/>
<text text-anchor="start" x="127.4" y="-270.75" font-family="Times,serif" font-size="11.00">Imp</text>
<text text-anchor="start" x="85.4" y="-253.15" font-family="Times,serif" font-size="9.00">Simple Imperative Programs</text>
</a>
</g>
</g>
<!-- Maps&#45;&gt;Imp -->
<g id="edge10" class="edge">
<title>Maps&#45;&gt;Imp</title>
<path fill="none" stroke="gray" d="M122.69,-324.34C123.06,-316.79 123.97,-308.17 125.23,-299.95"/>
<polygon fill="gray" stroke="gray" points="128.85,-300.6 127.14,-290.14 121.95,-299.38 128.85,-300.6"/>
</g>
<!-- Maps&#45;&gt;Imp -->
<g id="edge31" class="edge">
<title>Maps&#45;&gt;Imp</title>
<path fill="none" stroke="blue" d="M134.93,-324.34C136.46,-316.79 137.73,-308.17 138.55,-299.95"/>
<polygon fill="blue" stroke="blue" points="142.1,-300.38 139.37,-290.14 135.12,-299.85 142.1,-300.38"/>
</g>
<!-- ProofObjects&#45;&gt;Maps -->
<g id="edge30" class="edge">
<title>ProofObjects&#45;&gt;Maps</title>
<path fill="none" stroke="blue" d="M201.83,-347.4C199.81,-347.4 197.8,-347.4 195.79,-347.4"/>
<polygon fill="blue" stroke="blue" points="196.03,-343.9 186.03,-347.4 196.03,-350.9 196.03,-343.9"/>
</g>
<!-- IndPrinciples -->
<g id="node15" class="node">
<title>IndPrinciples</title>
<g id="a_node15"><a xlink:href="IndPrinciples.html" xlink:title="Go to chapter" target="_top">
<polygon fill="lightblue" stroke="black" points="336.8,-288.8 233.25,-288.8 233.25,-243.6 336.8,-243.6 336.8,-288.8"/>
<text text-anchor="start" x="255.77" y="-270.75" font-family="Times,serif" font-size="11.00">IndPrinciples</text>
<text text-anchor="start" x="251.65" y="-253.15" font-family="Times,serif" font-size="9.00">More on Induction</text>
</a>
</g>
</g>
<!-- ProofObjects&#45;&gt;IndPrinciples -->
<g id="edge12" class="edge">
<title>ProofObjects&#45;&gt;IndPrinciples</title>
<path fill="none" stroke="gray" d="M285.02,-324.34C285.02,-316.79 285.02,-308.17 285.02,-299.95"/>
<polygon fill="gray" stroke="gray" points="288.53,-300.14 285.02,-290.14 281.53,-300.14 288.53,-300.14"/>
</g>
<!-- ImpParser -->
<g id="node17" class="node">
<title>ImpParser</title>
<g id="a_node17"><a xlink:href="ImpParser.html" xlink:title="Go to chapter" target="_top">
<polygon fill="lightblue" stroke="black" points="132.05,-207.6 0,-207.6 0,-162.4 132.05,-162.4 132.05,-207.6"/>
<text text-anchor="start" x="43.15" y="-189.55" font-family="Times,serif" font-size="11.00">ImpParser</text>
<text text-anchor="start" x="18.4" y="-171.95" font-family="Times,serif" font-size="9.00">Lexing and Parsing in Coq</text>
</a>
</g>
</g>
<!-- Imp&#45;&gt;ImpParser -->
<g id="edge17" class="edge">
<title>Imp&#45;&gt;ImpParser</title>
<path fill="none" stroke="gray" d="M116.53,-243.14C109.09,-234.73 100.49,-224.99 92.52,-215.97"/>
<polygon fill="gray" stroke="gray" points="95.66,-214.12 86.42,-208.94 90.42,-218.75 95.66,-214.12"/>
</g>
<!-- ImpCEvalFun -->
<g id="node18" class="node">
<title>ImpCEvalFun</title>
<g id="a_node18"><a xlink:href="ImpCEvalFun.html" xlink:title="Go to chapter" target="_top">
<polygon fill="lightblue" stroke="black" points="300.43,-207.6 149.62,-207.6 149.62,-162.4 300.43,-162.4 300.43,-207.6"/>
<text text-anchor="start" x="194.28" y="-189.55" font-family="Times,serif" font-size="11.00">ImpCEvalFun</text>
<text text-anchor="start" x="168.03" y="-171.95" font-family="Times,serif" font-size="9.00">An Evaluation Function for Imp</text>
</a>
</g>
</g>
<!-- Imp&#45;&gt;ImpCEvalFun -->
<g id="edge19" class="edge">
<title>Imp&#45;&gt;ImpCEvalFun</title>
<path fill="none" stroke="gray" d="M160.82,-243.14C170.56,-234.47 181.88,-224.4 192.27,-215.15"/>
<polygon fill="gray" stroke="gray" points="194.22,-218.21 199.37,-208.94 189.57,-212.98 194.22,-218.21"/>
</g>
<!-- Auto -->
<g id="node21" class="node">
<title>Auto</title>
<g id="a_node21"><a xlink:href="Auto.html" xlink:title="Go to chapter" target="_top">
<polygon fill="lightblue" stroke="black" points="417.92,-207.6 318.12,-207.6 318.12,-162.4 417.92,-162.4 417.92,-207.6"/>
<text text-anchor="start" x="357.15" y="-189.55" font-family="Times,serif" font-size="11.00">Auto</text>
<text text-anchor="start" x="336.52" y="-171.95" font-family="Times,serif" font-size="9.00">More Automation</text>
</a>
</g>
</g>
<!-- Imp&#45;&gt;Auto -->
<g id="edge14" class="edge">
<title>Imp&#45;&gt;Auto</title>
<path fill="none" stroke="gray" d="M195.39,-243.23C226.59,-232.68 265.36,-219.71 300.02,-207.6 302.55,-206.72 305.13,-205.81 307.74,-204.88"/>
<polygon fill="gray" stroke="gray" points="308.66,-207.91 316.91,-201.26 306.32,-201.32 308.66,-207.91"/>
</g>
<!-- Imp&#45;&gt;Auto -->
<g id="edge32" class="edge">
<title>Imp&#45;&gt;Auto</title>
<path fill="none" stroke="blue" d="M205.41,-245.25C236.37,-235.37 273.42,-223.06 307.57,-211.24"/>
<polygon fill="blue" stroke="blue" points="308.3,-214.34 316.59,-207.75 306,-207.73 308.3,-214.34"/>
</g>
<!-- Extraction -->
<g id="node22" class="node">
<title>Extraction</title>
<g id="a_node22"><a xlink:href="Extraction.html" xlink:title="Go to chapter" target="_top">
<polygon fill="lightblue" stroke="black" points="128.68,-126.4 3.38,-126.4 3.38,-81.2 128.68,-81.2 128.68,-126.4"/>
<text text-anchor="start" x="43.15" y="-108.35" font-family="Times,serif" font-size="11.00">Extraction</text>
<text text-anchor="start" x="21.78" y="-90.75" font-family="Times,serif" font-size="9.00">Extracting ML from Coq</text>
</a>
</g>
</g>
<!-- ImpParser&#45;&gt;Extraction -->
<g id="edge18" class="edge">
<title>ImpParser&#45;&gt;Extraction</title>
<path fill="none" stroke="gray" d="M66.03,-161.94C66.03,-154.39 66.03,-145.77 66.03,-137.55"/>
<polygon fill="gray" stroke="gray" points="69.53,-137.74 66.03,-127.74 62.53,-137.74 69.53,-137.74"/>
</g>
<!-- Auto&#45;&gt;Postscript -->
<g id="edge15" class="edge">
<title>Auto&#45;&gt;Postscript</title>
<path fill="none" stroke="gray" d="M361.9,-161.94C361.22,-153.02 361.09,-142.62 361.52,-133.15"/>
<polygon fill="gray" stroke="gray" points="365.08,-133.46 362.32,-123.23 358.1,-132.95 365.08,-133.46"/>
</g>
<!-- Auto&#45;&gt;Postscript -->
<g id="edge33" class="edge">
<title>Auto&#45;&gt;Postscript</title>
<path fill="none" stroke="blue" d="M374.15,-161.94C374.83,-153.02 374.96,-142.62 374.53,-133.15"/>
<polygon fill="blue" stroke="blue" points="377.95,-132.95 373.73,-123.23 370.97,-133.46 377.95,-132.95"/>
</g>
</g>
</svg>
