<?xml version="1.0" encoding="UTF-8" standalone="no"?>
<?xml-stylesheet href="common/css/sf.css" type="text/css"?>
<!DOCTYPE svg PUBLIC "-//W3C//DTD SVG 1.1//EN"
 "http://www.w3.org/Graphics/SVG/1.1/DTD/svg11.dtd">
<!-- Generated by graphviz version 8.0.5 (0)
 -->
<!-- Pages: 1 -->
<svg width="504pt" height="1008pt"
 viewBox="0.00 21.60 504.00 986.67" xmlns="http://www.w3.org/2000/svg" xmlns:xlink="http://www.w3.org/1999/xlink">
<g id="graph0" class="graph deps" transform="scale(0.7827 0.7827) rotate(0) translate(4 1256.6)">
<polygon fill="white" stroke="none" points="-4,4 -4,-1229 639.92,-1229 639.92,4 -4,4"/>
<!-- legend -->
<g id="node1" class="node">
<title>legend</title>
<g id="a_node1"><a xlink:title="Go to chapter" target="_top">
<polygon fill="WhiteSmoke" stroke="none" points="286.12,-1225 79.93,-1225 79.93,-1136.8 286.12,-1136.8 286.12,-1225"/>
<polygon fill="lightblue" stroke="none" points="83.53,-1188.4 83.53,-1221.4 165.53,-1221.4 165.53,-1188.4 83.53,-1188.4"/>
<polygon fill="none" stroke="#7f7f7f" points="83.53,-1188.4 83.53,-1221.4 165.53,-1221.4 165.53,-1188.4 83.53,-1188.4"/>
<text text-anchor="start" x="94.53" y="-1200.9" font-family="Times,serif" font-size="10.00"> Core chapters </text>
<polygon fill="lightyellow" stroke="none" points="175.53,-1188.4 175.53,-1221.4 282.52,-1221.4 282.52,-1188.4 175.53,-1188.4"/>
<polygon fill="none" stroke="#7f7f7f" points="175.53,-1188.4 175.53,-1221.4 282.52,-1221.4 282.52,-1188.4 175.53,-1188.4"/>
<text text-anchor="start" x="186.28" y="-1200.9" font-family="Times,serif" font-size="10.00">Contributed chapters</text>
<text text-anchor="start" x="88.53" y="-1170.9" font-family="Times,serif" font-size="10.00" fill="gray">⟶</text>
<text text-anchor="start" x="102.78" y="-1170.9" font-family="Times,serif" font-size="10.00"> &#160;&#160;&#160;&#160;Chapter dependencies</text>
<text text-anchor="start" x="88.53" y="-1148.9" font-family="Times,serif" font-size="10.00" fill="blue">⟶</text>
<text text-anchor="start" x="102.78" y="-1148.9" font-family="Times,serif" font-size="10.00"> &#160;&#160;&#160;&#160;Proofs are Programs course in Bochum</text>
</a>
</g>
</g>
<!-- Preface -->
<g id="node2" class="node">
<title>Preface</title>
<g id="a_node2"><a xlink:href="Preface.html" xlink:title="Go to chapter" target="_top">
<polygon fill="lightblue" stroke="black" points="431.67,-1198.9 368.38,-1198.9 368.38,-1162.9 431.67,-1162.9 431.67,-1198.9"/>
<text text-anchor="middle" x="400.02" y="-1177.2" font-family="Times,serif" font-size="11.00">Preface</text>
</a>
</g>
</g>
<!-- Basics -->
<g id="node4" class="node">
<title>Basics</title>
<g id="a_node4"><a xlink:href="Basics.html" xlink:title="Go to chapter" target="_top">
<polygon fill="lightblue" stroke="black" points="475.8,-1100.8 324.25,-1100.8 324.25,-1055.6 475.8,-1055.6 475.8,-1100.8"/>
<text text-anchor="start" x="385.02" y="-1082.75" font-family="Times,serif" font-size="11.00">Basics</text>
<text text-anchor="start" x="342.65" y="-1065.15" font-family="Times,serif" font-size="9.00">Functional Programming in Coq</text>
</a>
</g>
</g>
<!-- Preface&#45;&gt;Basics -->
<g id="edge21" class="edge">
<title>Preface&#45;&gt;Basics</title>
<path fill="none" stroke="blue" d="M400.02,-1162.82C400.02,-1148.82 400.02,-1128.63 400.02,-1111.59"/>
<polygon fill="blue" stroke="blue" points="403.53,-1111.94 400.02,-1101.94 396.53,-1111.94 403.53,-1111.94"/>
</g>
<!-- Postscript -->
<g id="node3" class="node">
<title>Postscript</title>
<g id="a_node3"><a xlink:href="Postscript.html" xlink:title="Go to chapter" target="_top">
<polygon fill="lightblue" stroke="black" points="622.17,-121.8 549.88,-121.8 549.88,-85.8 622.17,-85.8 622.17,-121.8"/>
<text text-anchor="middle" x="586.02" y="-100.1" font-family="Times,serif" font-size="11.00">Postscript</text>
</a>
</g>
</g>
<!-- Bib -->
<g id="node20" class="node">
<title>Bib</title>
<g id="a_node20"><a xlink:href="Bib.html" xlink:title="Go to chapter" target="_top">
<polygon fill="lightblue" stroke="black" points="627.67,-45.2 544.38,-45.2 544.38,0 627.67,0 627.67,-45.2"/>
<text text-anchor="start" x="578.15" y="-27.15" font-family="Times,serif" font-size="11.00">Bib</text>
<text text-anchor="start" x="562.77" y="-9.55" font-family="Times,serif" font-size="9.00">Bibliography</text>
</a>
</g>
</g>
<!-- Postscript&#45;&gt;Bib -->
<g id="edge17" class="edge">
<title>Postscript&#45;&gt;Bib</title>
<path fill="none" stroke="gray" d="M586.02,-85.61C586.02,-77.09 586.02,-66.49 586.02,-56.48"/>
<polygon fill="gray" stroke="gray" points="589.53,-56.58 586.02,-46.58 582.53,-56.58 589.53,-56.58"/>
</g>
<!-- Induction -->
<g id="node5" class="node">
<title>Induction</title>
<g id="a_node5"><a xlink:href="Induction.html" xlink:title="Go to chapter" target="_top">
<polygon fill="lightblue" stroke="black" points="452.17,-1019.6 347.88,-1019.6 347.88,-974.4 452.17,-974.4 452.17,-1019.6"/>
<text text-anchor="start" x="379.4" y="-1001.55" font-family="Times,serif" font-size="11.00">Induction</text>
<text text-anchor="start" x="366.27" y="-983.95" font-family="Times,serif" font-size="9.00">Proof by Induction</text>
</a>
</g>
</g>
<!-- Basics&#45;&gt;Induction -->
<g id="edge1" class="edge">
<title>Basics&#45;&gt;Induction</title>
<path fill="none" stroke="gray" d="M393.9,-1055.14C393.33,-1047.59 393.15,-1038.97 393.37,-1030.75"/>
<polygon fill="gray" stroke="gray" points="396.9,-1031.11 393.91,-1020.94 389.91,-1030.75 396.9,-1031.11"/>
</g>
<!-- Basics&#45;&gt;Induction -->
<g id="edge22" class="edge">
<title>Basics&#45;&gt;Induction</title>
<path fill="none" stroke="blue" d="M406.15,-1055.14C406.72,-1047.59 406.9,-1038.97 406.68,-1030.75"/>
<polygon fill="blue" stroke="blue" points="410.14,-1030.75 406.14,-1020.94 403.15,-1031.11 410.14,-1030.75"/>
</g>
<!-- Lists -->
<g id="node6" class="node">
<title>Lists</title>
<g id="a_node6"><a xlink:href="Lists.html" xlink:title="Go to chapter" target="_top">
<polygon fill="lightblue" stroke="black" points="472.05,-938.4 328,-938.4 328,-893.2 472.05,-893.2 472.05,-938.4"/>
<text text-anchor="start" x="389.15" y="-920.35" font-family="Times,serif" font-size="11.00">Lists</text>
<text text-anchor="start" x="346.4" y="-902.75" font-family="Times,serif" font-size="9.00">Working with Structured Data</text>
</a>
</g>
</g>
<!-- Induction&#45;&gt;Lists -->
<g id="edge2" class="edge">
<title>Induction&#45;&gt;Lists</title>
<path fill="none" stroke="gray" d="M393.9,-973.94C393.33,-966.39 393.15,-957.77 393.37,-949.55"/>
<polygon fill="gray" stroke="gray" points="396.9,-949.91 393.91,-939.74 389.91,-949.55 396.9,-949.91"/>
</g>
<!-- Induction&#45;&gt;Lists -->
<g id="edge23" class="edge">
<title>Induction&#45;&gt;Lists</title>
<path fill="none" stroke="blue" d="M406.15,-973.94C406.72,-966.39 406.9,-957.77 406.68,-949.55"/>
<polygon fill="blue" stroke="blue" points="410.14,-949.55 406.14,-939.74 403.15,-949.91 410.14,-949.55"/>
</g>
<!-- Poly -->
<g id="node7" class="node">
<title>Poly</title>
<g id="a_node7"><a xlink:href="Poly.html" xlink:title="Go to chapter" target="_top">
<polygon fill="lightblue" stroke="black" points="496.42,-857.2 303.62,-857.2 303.62,-812 496.42,-812 496.42,-857.2"/>
<text text-anchor="start" x="390.27" y="-839.15" font-family="Times,serif" font-size="11.00">Poly</text>
<text text-anchor="start" x="322.02" y="-821.55" font-family="Times,serif" font-size="9.00">Polymorphism and Higher&#45;Order Functions</text>
</a>
</g>
</g>
<!-- Lists&#45;&gt;Poly -->
<g id="edge3" class="edge">
<title>Lists&#45;&gt;Poly</title>
<path fill="none" stroke="gray" d="M393.9,-892.74C393.33,-885.19 393.15,-876.57 393.37,-868.35"/>
<polygon fill="gray" stroke="gray" points="396.9,-868.71 393.91,-858.54 389.91,-868.35 396.9,-868.71"/>
</g>
<!-- Lists&#45;&gt;Poly -->
<g id="edge24" class="edge">
<title>Lists&#45;&gt;Poly</title>
<path fill="none" stroke="blue" d="M406.15,-892.74C406.72,-885.19 406.9,-876.57 406.68,-868.35"/>
<polygon fill="blue" stroke="blue" points="410.14,-868.35 406.14,-858.54 403.15,-868.71 410.14,-868.35"/>
</g>
<!-- Tactics -->
<g id="node8" class="node">
<title>Tactics</title>
<g id="a_node8"><a xlink:href="Tactics.html" xlink:title="Go to chapter" target="_top">
<polygon fill="lightblue" stroke="black" points="452.55,-776 347.5,-776 347.5,-730.8 452.55,-730.8 452.55,-776"/>
<text text-anchor="start" x="384.27" y="-757.95" font-family="Times,serif" font-size="11.00">Tactics</text>
<text text-anchor="start" x="365.9" y="-740.35" font-family="Times,serif" font-size="9.00">More Basic Tactics</text>
</a>
</g>
</g>
<!-- Poly&#45;&gt;Tactics -->
<g id="edge4" class="edge">
<title>Poly&#45;&gt;Tactics</title>
<path fill="none" stroke="gray" d="M393.9,-811.54C393.33,-803.99 393.15,-795.37 393.37,-787.15"/>
<polygon fill="gray" stroke="gray" points="396.9,-787.51 393.91,-777.34 389.91,-787.15 396.9,-787.51"/>
</g>
<!-- Poly&#45;&gt;Tactics -->
<g id="edge25" class="edge">
<title>Poly&#45;&gt;Tactics</title>
<path fill="none" stroke="blue" d="M406.15,-811.54C406.72,-803.99 406.9,-795.37 406.68,-787.15"/>
<polygon fill="blue" stroke="blue" points="410.14,-787.15 406.14,-777.34 403.15,-787.51 410.14,-787.15"/>
</g>
<!-- Logic1 -->
<g id="node11" class="node">
<title>Logic1</title>
<g id="a_node11"><a xlink:href="Logic1.html" xlink:title="Go to chapter" target="_top">
<polygon fill="lightblue" stroke="black" points="454.05,-694.8 346,-694.8 346,-649.6 454.05,-649.6 454.05,-694.8"/>
<text text-anchor="start" x="384.65" y="-676.75" font-family="Times,serif" font-size="11.00">Logic1</text>
<text text-anchor="start" x="364.4" y="-659.15" font-family="Times,serif" font-size="9.00">Logic in Coq: part 1</text>
</a>
</g>
</g>
<!-- Tactics&#45;&gt;Logic1 -->
<g id="edge5" class="edge">
<title>Tactics&#45;&gt;Logic1</title>
<path fill="none" stroke="gray" d="M393.9,-730.34C393.33,-722.79 393.15,-714.17 393.37,-705.95"/>
<polygon fill="gray" stroke="gray" points="396.9,-706.31 393.91,-696.14 389.91,-705.95 396.9,-706.31"/>
</g>
<!-- Tactics&#45;&gt;Logic1 -->
<g id="edge26" class="edge">
<title>Tactics&#45;&gt;Logic1</title>
<path fill="none" stroke="blue" d="M406.15,-730.34C406.72,-722.79 406.9,-714.17 406.68,-705.95"/>
<polygon fill="blue" stroke="blue" points="410.14,-705.95 406.14,-696.14 403.15,-706.31 410.14,-705.95"/>
</g>
<!-- IndProp1 -->
<g id="node9" class="node">
<title>IndProp1</title>
<g id="a_node9"><a xlink:href="IndProp1.html" xlink:title="Go to chapter" target="_top">
<polygon fill="lightblue" stroke="black" points="489.67,-532.4 310.38,-532.4 310.38,-487.2 489.67,-487.2 489.67,-532.4"/>
<text text-anchor="start" x="380.15" y="-514.35" font-family="Times,serif" font-size="11.00">IndProp1</text>
<text text-anchor="start" x="328.77" y="-496.75" font-family="Times,serif" font-size="9.00">Inductively Defined Propositions: part 1</text>
</a>
</g>
</g>
<!-- IndProp -->
<g id="node10" class="node">
<title>IndProp</title>
<g id="a_node10"><a xlink:href="IndProp.html" xlink:title="Go to chapter" target="_top">
<polygon fill="lightblue" stroke="black" points="489.67,-451.2 310.38,-451.2 310.38,-406 489.67,-406 489.67,-451.2"/>
<text text-anchor="start" x="382.77" y="-433.15" font-family="Times,serif" font-size="11.00">IndProp</text>
<text text-anchor="start" x="328.77" y="-415.55" font-family="Times,serif" font-size="9.00">Inductively Defined Propositions: part 2</text>
</a>
</g>
</g>
<!-- IndProp1&#45;&gt;IndProp -->
<g id="edge8" class="edge">
<title>IndProp1&#45;&gt;IndProp</title>
<path fill="none" stroke="gray" d="M393.9,-486.74C393.33,-479.19 393.15,-470.57 393.37,-462.35"/>
<polygon fill="gray" stroke="gray" points="396.9,-462.71 393.91,-452.54 389.91,-462.35 396.9,-462.71"/>
</g>
<!-- IndProp1&#45;&gt;IndProp -->
<g id="edge29" class="edge">
<title>IndProp1&#45;&gt;IndProp</title>
<path fill="none" stroke="blue" d="M406.15,-486.74C406.72,-479.19 406.9,-470.57 406.68,-462.35"/>
<polygon fill="blue" stroke="blue" points="410.14,-462.35 406.14,-452.54 403.15,-462.71 410.14,-462.35"/>
</g>
<!-- Maps -->
<g id="node13" class="node">
<title>Maps</title>
<g id="a_node13"><a xlink:href="Maps.html" xlink:title="Go to chapter" target="_top">
<polygon fill="lightblue" stroke="black" points="299.55,-370 182.5,-370 182.5,-324.8 299.55,-324.8 299.55,-370"/>
<text text-anchor="start" x="228.65" y="-351.95" font-family="Times,serif" font-size="11.00">Maps</text>
<text text-anchor="start" x="200.9" y="-334.35" font-family="Times,serif" font-size="9.00">Total and Partial Maps</text>
</a>
</g>
</g>
<!-- IndProp&#45;&gt;Maps -->
<g id="edge9" class="edge">
<title>IndProp&#45;&gt;Maps</title>
<path fill="none" stroke="gray" d="M355.73,-405.54C336.95,-396.18 314.87,-385.18 295.13,-375.35"/>
<polygon fill="gray" stroke="gray" points="296.86,-371.81 286.35,-370.48 293.74,-378.07 296.86,-371.81"/>
</g>
<!-- ProofObjects -->
<g id="node14" class="node">
<title>ProofObjects</title>
<g id="a_node14"><a xlink:href="ProofObjects.html" xlink:title="Go to chapter" target="_top">
<polygon fill="lightblue" stroke="black" points="482.92,-370 317.12,-370 317.12,-324.8 482.92,-324.8 482.92,-370"/>
<text text-anchor="start" x="370.77" y="-351.95" font-family="Times,serif" font-size="11.00">ProofObjects</text>
<text text-anchor="start" x="335.52" y="-334.35" font-family="Times,serif" font-size="9.00">The Curry&#45;Howard Correspondence</text>
</a>
</g>
</g>
<!-- IndProp&#45;&gt;ProofObjects -->
<g id="edge12" class="edge">
<title>IndProp&#45;&gt;ProofObjects</title>
<path fill="none" stroke="gray" d="M393.9,-405.54C393.33,-397.99 393.15,-389.37 393.37,-381.15"/>
<polygon fill="gray" stroke="gray" points="396.9,-381.51 393.91,-371.34 389.91,-381.15 396.9,-381.51"/>
</g>
<!-- IndProp&#45;&gt;ProofObjects -->
<g id="edge30" class="edge">
<title>IndProp&#45;&gt;ProofObjects</title>
<path fill="none" stroke="blue" d="M406.15,-405.54C406.72,-397.99 406.9,-389.37 406.68,-381.15"/>
<polygon fill="blue" stroke="blue" points="410.14,-381.15 406.14,-371.34 403.15,-381.51 410.14,-381.15"/>
</g>
<!-- Rel -->
<g id="node19" class="node">
<title>Rel</title>
<g id="a_node19"><a xlink:href="Rel.html" xlink:title="Go to chapter" target="_top">
<polygon fill="lightblue" stroke="black" points="618.92,-370 501.12,-370 501.12,-324.8 618.92,-324.8 618.92,-370"/>
<text text-anchor="start" x="552.15" y="-351.95" font-family="Times,serif" font-size="11.00">Rel</text>
<text text-anchor="start" x="519.52" y="-334.35" font-family="Times,serif" font-size="9.00">Properties of Relations</text>
</a>
</g>
</g>
<!-- IndProp&#45;&gt;Rel -->
<g id="edge14" class="edge">
<title>IndProp&#45;&gt;Rel</title>
<path fill="none" stroke="gray" d="M444.59,-405.54C463.5,-396.18 485.71,-385.18 505.58,-375.35"/>
<polygon fill="gray" stroke="gray" points="507.01,-378.05 514.42,-370.48 503.9,-371.78 507.01,-378.05"/>
</g>
<!-- Logic -->
<g id="node12" class="node">
<title>Logic</title>
<g id="a_node12"><a xlink:href="Logic.html" xlink:title="Go to chapter" target="_top">
<polygon fill="lightblue" stroke="black" points="454.05,-613.6 346,-613.6 346,-568.4 454.05,-568.4 454.05,-613.6"/>
<text text-anchor="start" x="387.27" y="-595.55" font-family="Times,serif" font-size="11.00">Logic</text>
<text text-anchor="start" x="364.4" y="-577.95" font-family="Times,serif" font-size="9.00">Logic in Coq: part 2</text>
</a>
</g>
</g>
<!-- Logic1&#45;&gt;Logic -->
<g id="edge6" class="edge">
<title>Logic1&#45;&gt;Logic</title>
<path fill="none" stroke="gray" d="M393.9,-649.14C393.33,-641.59 393.15,-632.97 393.37,-624.75"/>
<polygon fill="gray" stroke="gray" points="396.9,-625.11 393.91,-614.94 389.91,-624.75 396.9,-625.11"/>
</g>
<!-- Logic1&#45;&gt;Logic -->
<g id="edge27" class="edge">
<title>Logic1&#45;&gt;Logic</title>
<path fill="none" stroke="blue" d="M406.15,-649.14C406.72,-641.59 406.9,-632.97 406.68,-624.75"/>
<polygon fill="blue" stroke="blue" points="410.14,-624.75 406.14,-614.94 403.15,-625.11 410.14,-624.75"/>
</g>
<!-- Logic&#45;&gt;IndProp1 -->
<g id="edge7" class="edge">
<title>Logic&#45;&gt;IndProp1</title>
<path fill="none" stroke="gray" d="M393.9,-567.94C393.33,-560.39 393.15,-551.77 393.37,-543.55"/>
<polygon fill="gray" stroke="gray" points="396.9,-543.91 393.91,-533.74 389.91,-543.55 396.9,-543.91"/>
</g>
<!-- Logic&#45;&gt;IndProp1 -->
<g id="edge28" class="edge">
<title>Logic&#45;&gt;IndProp1</title>
<path fill="none" stroke="blue" d="M406.15,-567.94C406.72,-560.39 406.9,-551.77 406.68,-543.55"/>
<polygon fill="blue" stroke="blue" points="410.14,-543.55 406.14,-533.74 403.15,-543.91 410.14,-543.55"/>
</g>
<!-- Imp -->
<g id="node16" class="node">
<title>Imp</title>
<g id="a_node16"><a xlink:href="Imp.html" xlink:title="Go to chapter" target="_top">
<polygon fill="lightblue" stroke="black" points="310.05,-288.8 172,-288.8 172,-243.6 310.05,-243.6 310.05,-288.8"/>
<text text-anchor="start" x="232.4" y="-270.75" font-family="Times,serif" font-size="11.00">Imp</text>
<text text-anchor="start" x="190.4" y="-253.15" font-family="Times,serif" font-size="9.00">Simple Imperative Programs</text>
</a>
</g>
</g>
<!-- Maps&#45;&gt;Imp -->
<g id="edge10" class="edge">
<title>Maps&#45;&gt;Imp</title>
<path fill="none" stroke="gray" d="M234.9,-324.34C234.33,-316.79 234.15,-308.17 234.37,-299.95"/>
<polygon fill="gray" stroke="gray" points="237.9,-300.31 234.91,-290.14 230.91,-299.95 237.9,-300.31"/>
</g>
<!-- Maps&#45;&gt;Imp -->
<g id="edge32" class="edge">
<title>Maps&#45;&gt;Imp</title>
<path fill="none" stroke="blue" d="M247.15,-324.34C247.72,-316.79 247.9,-308.17 247.68,-299.95"/>
<polygon fill="blue" stroke="blue" points="251.14,-299.95 247.14,-290.14 244.15,-300.31 251.14,-299.95"/>
</g>
<!-- ProofObjects&#45;&gt;Maps -->
<g id="edge31" class="edge">
<title>ProofObjects&#45;&gt;Maps</title>
<path fill="none" stroke="blue" d="M316.83,-347.4C314.81,-347.4 312.8,-347.4 310.79,-347.4"/>
<polygon fill="blue" stroke="blue" points="311.03,-343.9 301.03,-347.4 311.03,-350.9 311.03,-343.9"/>
</g>
<!-- IndPrinciples -->
<g id="node15" class="node">
<title>IndPrinciples</title>
<g id="a_node15"><a xlink:href="IndPrinciples.html" xlink:title="Go to chapter" target="_top">
<polygon fill="lightblue" stroke="black" points="451.8,-288.8 348.25,-288.8 348.25,-243.6 451.8,-243.6 451.8,-288.8"/>
<text text-anchor="start" x="370.77" y="-270.75" font-family="Times,serif" font-size="11.00">IndPrinciples</text>
<text text-anchor="start" x="366.65" y="-253.15" font-family="Times,serif" font-size="9.00">More on Induction</text>
</a>
</g>
</g>
<!-- ProofObjects&#45;&gt;IndPrinciples -->
<g id="edge13" class="edge">
<title>ProofObjects&#45;&gt;IndPrinciples</title>
<path fill="none" stroke="gray" d="M400.02,-324.34C400.02,-316.79 400.02,-308.17 400.02,-299.95"/>
<polygon fill="gray" stroke="gray" points="403.53,-300.14 400.02,-290.14 396.53,-300.14 403.53,-300.14"/>
</g>
<!-- ImpParser -->
<g id="node17" class="node">
<title>ImpParser</title>
<g id="a_node17"><a xlink:href="ImpParser.html" xlink:title="Go to chapter" target="_top">
<polygon fill="lightblue" stroke="black" points="132.05,-207.6 0,-207.6 0,-162.4 132.05,-162.4 132.05,-207.6"/>
<text text-anchor="start" x="43.15" y="-189.55" font-family="Times,serif" font-size="11.00">ImpParser</text>
<text text-anchor="start" x="18.4" y="-171.95" font-family="Times,serif" font-size="9.00">Lexing and Parsing in Coq</text>
</a>
</g>
</g>
<!-- Imp&#45;&gt;ImpParser -->
<g id="edge18" class="edge">
<title>Imp&#45;&gt;ImpParser</title>
<path fill="none" stroke="gray" d="M192.28,-243.14C171.32,-233.65 146.64,-222.48 124.69,-212.55"/>
<polygon fill="gray" stroke="gray" points="126.37,-209.02 115.81,-208.08 123.48,-215.39 126.37,-209.02"/>
</g>
<!-- ImpCEvalFun -->
<g id="node18" class="node">
<title>ImpCEvalFun</title>
<g id="a_node18"><a xlink:href="ImpCEvalFun.html" xlink:title="Go to chapter" target="_top">
<polygon fill="lightblue" stroke="black" points="300.43,-207.6 149.62,-207.6 149.62,-162.4 300.43,-162.4 300.43,-207.6"/>
<text text-anchor="start" x="194.28" y="-189.55" font-family="Times,serif" font-size="11.00">ImpCEvalFun</text>
<text text-anchor="start" x="168.03" y="-171.95" font-family="Times,serif" font-size="9.00">An Evaluation Function for Imp</text>
</a>
</g>
</g>
<!-- Imp&#45;&gt;ImpCEvalFun -->
<g id="edge20" class="edge">
<title>Imp&#45;&gt;ImpCEvalFun</title>
<path fill="none" stroke="gray" d="M236.57,-243.14C235.03,-235.5 233.26,-226.77 231.59,-218.47"/>
<polygon fill="gray" stroke="gray" points="234.87,-218.05 229.46,-208.94 228.01,-219.44 234.87,-218.05"/>
</g>
<!-- Noninterference -->
<g id="node21" class="node">
<title>Noninterference</title>
<g id="a_node21"><a xlink:href="Noninterference.html" xlink:title="Go to chapter" target="_top">
<polygon fill="lightblue" stroke="black" points="517.8,-207.6 318.25,-207.6 318.25,-162.4 517.8,-162.4 517.8,-207.6"/>
<text text-anchor="start" x="381.65" y="-189.55" font-family="Times,serif" font-size="11.00">Noninterference</text>
<text text-anchor="start" x="336.65" y="-171.95" font-family="Times,serif" font-size="9.00">Defining Secrecy and Secure Multi&#45;Execution</text>
</a>
</g>
</g>
<!-- Imp&#45;&gt;Noninterference -->
<g id="edge11" class="edge">
<title>Imp&#45;&gt;Noninterference</title>
<path fill="none" stroke="gray" d="M284.21,-243.14C304.77,-233.61 329.77,-222.38 352.59,-212.41"/>
<polygon fill="gray" stroke="gray" points="353.78,-215.28 361.55,-208.08 350.99,-208.86 353.78,-215.28"/>
</g>
<!-- Imp&#45;&gt;Noninterference -->
<g id="edge33" class="edge">
<title>Imp&#45;&gt;Noninterference</title>
<path fill="none" stroke="blue" d="M296.45,-243.14C318.28,-233.69 343.21,-222.58 364.81,-212.68"/>
<polygon fill="blue" stroke="blue" points="366.19,-215.44 373.8,-208.08 363.26,-209.09 366.19,-215.44"/>
</g>
<!-- Auto -->
<g id="node22" class="node">
<title>Auto</title>
<g id="a_node22"><a xlink:href="Auto.html" xlink:title="Go to chapter" target="_top">
<polygon fill="lightblue" stroke="black" points="635.92,-207.6 536.12,-207.6 536.12,-162.4 635.92,-162.4 635.92,-207.6"/>
<text text-anchor="start" x="575.15" y="-189.55" font-family="Times,serif" font-size="11.00">Auto</text>
<text text-anchor="start" x="554.52" y="-171.95" font-family="Times,serif" font-size="9.00">More Automation</text>
</a>
</g>
</g>
<!-- Imp&#45;&gt;Auto -->
<g id="edge15" class="edge">
<title>Imp&#45;&gt;Auto</title>
<path fill="none" stroke="gray" d="M310.31,-249.68C319.94,-247.59 329.72,-245.51 339.02,-243.6 419.1,-227.11 443.17,-230.03 525.35,-207.87"/>
<polygon fill="gray" stroke="gray" points="525.95,-211.06 534.67,-205.04 524.1,-204.31 525.95,-211.06"/>
</g>
<!-- Extraction -->
<g id="node23" class="node">
<title>Extraction</title>
<g id="a_node23"><a xlink:href="Extraction.html" xlink:title="Go to chapter" target="_top">
<polygon fill="lightblue" stroke="black" points="128.68,-126.4 3.38,-126.4 3.38,-81.2 128.68,-81.2 128.68,-126.4"/>
<text text-anchor="start" x="43.15" y="-108.35" font-family="Times,serif" font-size="11.00">Extraction</text>
<text text-anchor="start" x="21.78" y="-90.75" font-family="Times,serif" font-size="9.00">Extracting ML from Coq</text>
</a>
</g>
</g>
<!-- ImpParser&#45;&gt;Extraction -->
<g id="edge19" class="edge">
<title>ImpParser&#45;&gt;Extraction</title>
<path fill="none" stroke="gray" d="M66.03,-161.94C66.03,-154.39 66.03,-145.77 66.03,-137.55"/>
<polygon fill="gray" stroke="gray" points="69.53,-137.74 66.03,-127.74 62.53,-137.74 69.53,-137.74"/>
</g>
<!-- Noninterference&#45;&gt;Auto -->
<g id="edge34" class="edge">
<title>Noninterference&#45;&gt;Auto</title>
<path fill="none" stroke="blue" d="M518.1,-185C520.42,-185 522.73,-185 525.05,-185"/>
<polygon fill="blue" stroke="blue" points="524.88,-188.5 534.88,-185 524.88,-181.5 524.88,-188.5"/>
</g>
<!-- Auto&#45;&gt;Postscript -->
<g id="edge16" class="edge">
<title>Auto&#45;&gt;Postscript</title>
<path fill="none" stroke="gray" d="M579.9,-161.94C579.22,-153.02 579.09,-142.62 579.52,-133.15"/>
<polygon fill="gray" stroke="gray" points="583.08,-133.46 580.32,-123.23 576.1,-132.95 583.08,-133.46"/>
</g>
<!-- Auto&#45;&gt;Postscript -->
<g id="edge35" class="edge">
<title>Auto&#45;&gt;Postscript</title>
<path fill="none" stroke="blue" d="M592.15,-161.94C592.83,-153.02 592.96,-142.62 592.53,-133.15"/>
<polygon fill="blue" stroke="blue" points="595.95,-132.95 591.73,-123.23 588.97,-133.46 595.95,-132.95"/>
</g>
</g>
</svg>
